<?xml version="1.0" encoding="UTF-8" standalone="no"?>
<!-- Generator: Adobe Illustrator 19.0.0, SVG Export Plug-In . SVG Version: 6.00 Build 0)  -->

<svg
   xmlns:dc="http://purl.org/dc/elements/1.1/"
   xmlns:cc="http://creativecommons.org/ns#"
   xmlns:rdf="http://www.w3.org/1999/02/22-rdf-syntax-ns#"
   xmlns:svg="http://www.w3.org/2000/svg"
   xmlns="http://www.w3.org/2000/svg"
   xmlns:sodipodi="http://sodipodi.sourceforge.net/DTD/sodipodi-0.dtd"
   xmlns:inkscape="http://www.inkscape.org/namespaces/inkscape"
   version="1.1"
   id="Layer_1"
   x="0px"
   y="0px"
   viewBox="0 0 489 489"
   style="enable-background:new 0 0 489 489;"
   xml:space="preserve"
   sodipodi:docname="sctl.svg"
   inkscape:version="0.92.3 (2405546, 2018-03-11)"><metadata
   id="metadata47"><rdf:RDF><cc:Work
       rdf:about=""><dc:format>image/svg+xml</dc:format><dc:type
         rdf:resource="http://purl.org/dc/dcmitype/StillImage" /></cc:Work></rdf:RDF></metadata><defs
   id="defs45" /><sodipodi:namedview
   pagecolor="#ffffff"
   bordercolor="#666666"
   borderopacity="1"
   objecttolerance="10"
   gridtolerance="10"
   guidetolerance="10"
   inkscape:pageopacity="0"
   inkscape:pageshadow="2"
   inkscape:window-width="2509"
   inkscape:window-height="1385"
   id="namedview43"
   showgrid="false"
   inkscape:zoom="0.48261759"
   inkscape:cx="244.5"
   inkscape:cy="244.5"
   inkscape:window-x="51"
   inkscape:window-y="27"
   inkscape:window-maximized="1"
   inkscape:current-layer="g8" />
<g
   id="g10">
	<g
   id="g8">
		<path
   style="fill:#2b87da;fill-opacity:0.627451"
   d="M269.6,420.35h-50.2c-48,0-86.9-38.9-86.9-86.9v-143c0-3.9,3.2-7.1,7.1-7.1h209.8    c3.9,0,7.1,3.2,7.1,7.1v143C356.5,381.45,317.6,420.35,269.6,420.35z"
   id="path2" />
		<path
   d="M168.9,135.15c0,5,4.1,9.1,9.1,9.1s9.1-4.1,9.1-9.1c0-31.7,25.8-57.5,57.5-57.5s57.5,25.8,57.5,57.5c0,5,4.1,9.1,9.1,9.1    s9.1-4.1,9.1-9.1c0-41.7-33.9-75.6-75.6-75.6S168.9,93.45,168.9,135.15z"
   id="path4" />
		<path
   d="M479.9,274.45H365.6v-37h28.9c22.2,0,40.4-18.1,40.4-40.3v-45.1c0-5-4.1-9.1-9.1-9.1s-9.1,4.1-9.1,9.1v45.1    c0,12.3-10,22.2-22.2,22.2h-28.9v-21.7c0-12.9-10.5-23.4-23.4-23.4H146.8c-12.9,0-23.4,10.5-23.4,23.4v21.8H94.5    c-12.3,0-22.2-10-22.2-22.2v-45.1c0-5-4.1-9.1-9.1-9.1s-9.1,4.1-9.1,9.1v45.1c0,22.2,18.1,40.3,40.4,40.3h28.9v37H9.1    c-5,0-9.1,4.1-9.1,9.1s4.1,9.1,9.1,9.1h114.3v36.7H94.5c-22.2,0-40.4,18.1-40.4,40.3v45.1c0,5,4.1,9.1,9.1,9.1s9.1-4.1,9.1-9.1    v-45.1c0-12.3,10-22.2,22.2-22.2h30.1c7.4,46.4,47.6,81.9,96,81.9h47.7c48.4,0,88.7-35.6,96-81.9h30.2c12.3,0,22.2,10,22.2,22.2    v45.1c0,5,4.1,9.1,9.1,9.1s9.1-4.1,9.1-9.1v-45.1c0-22.2-18.1-40.3-40.4-40.3h-28.9v-36.7h114.3c5,0,9.1-4.1,9.1-9.1    C488.9,278.55,484.9,274.45,479.9,274.45z M141.6,332.15v-134.5c0-2.9,2.4-5.3,5.3-5.3h88.6v218.9h-14.8    C177,411.25,141.6,375.75,141.6,332.15z M268.3,411.25h-14.8v-218.9h88.6c2.9,0,5.3,2.4,5.3,5.3v134.5    C347.4,375.75,312,411.25,268.3,411.25z"
   id="path6" />
	</g>
</g>
<g
   id="g12">
</g>
<g
   id="g14">
</g>
<g
   id="g16">
</g>
<g
   id="g18">
</g>
<g
   id="g20">
</g>
<g
   id="g22">
</g>
<g
   id="g24">
</g>
<g
   id="g26">
</g>
<g
   id="g28">
</g>
<g
   id="g30">
</g>
<g
   id="g32">
</g>
<g
   id="g34">
</g>
<g
   id="g36">
</g>
<g
   id="g38">
</g>
<g
   id="g40">
</g>
</svg>